<?xml version="1.0" encoding="UTF-8" standalone="no"?>
<svg
   xmlns:dc="http://purl.org/dc/elements/1.1/"
   xmlns:cc="http://creativecommons.org/ns#"
   xmlns:rdf="http://www.w3.org/1999/02/22-rdf-syntax-ns#"
   xmlns:svg="http://www.w3.org/2000/svg"
   xmlns="http://www.w3.org/2000/svg"
   xmlns:sodipodi="http://sodipodi.sourceforge.net/DTD/sodipodi-0.dtd"
   xmlns:inkscape="http://www.inkscape.org/namespaces/inkscape"
   viewBox="0 0 357.048 411.13949"
   version="1.1"
   id="svg48"
   sodipodi:docname="logo.svg"
   width="94.468948mm"
   height="108.78066mm"
   inkscape:version="0.92.2 (5c3e80d, 2017-08-06)">
  <metadata
     id="metadata52">
    <rdf:RDF>
      <cc:Work
         rdf:about="">
        <dc:format>image/svg+xml</dc:format>
        <dc:type
           rdf:resource="http://purl.org/dc/dcmitype/StillImage" />
        <dc:title>logo</dc:title>
      </cc:Work>
    </rdf:RDF>
  </metadata>
  <sodipodi:namedview
     pagecolor="#ffffff"
     bordercolor="#666666"
     borderopacity="1"
     objecttolerance="10"
     gridtolerance="10"
     guidetolerance="10"
     inkscape:pageopacity="0"
     inkscape:pageshadow="2"
     inkscape:window-width="1366"
     inkscape:window-height="704"
     id="namedview50"
     showgrid="false"
     units="mm"
     fit-margin-top="2"
     fit-margin-left="0"
     fit-margin-right="0"
     fit-margin-bottom="0"
     inkscape:zoom="0.15166077"
     inkscape:cx="1028.6115"
     inkscape:cy="993.03042"
     inkscape:window-x="0"
     inkscape:window-y="27"
     inkscape:window-maximized="1"
     inkscape:current-layer="svg48" />
  <defs
     id="defs4">
    <style
       id="style2">.a{fill:#ff3232;}.b{fill:none;stroke:#ff3232;stroke-miterlimit:10;stroke-width:10px;}</style>
  </defs>
  <title
     id="title6">logo</title>
  <path
     class="a"
     d="m 198.127,210.43772 h -0.017 v 0 z"
     id="path8"
     inkscape:connector-curvature="0"
     style="fill:#ff3232" />
  <path
     class="a"
     d="m 199.436,210.57872 -0.474,-0.052 c 0.138,0.014 0.299,0.029 0.474,0.052 z"
     id="path10"
     inkscape:connector-curvature="0"
     style="fill:#ff3232" />
  <path
     class="a"
     d="m 198.127,210.43772 h -0.017 v 0 z"
     id="path12"
     inkscape:connector-curvature="0"
     style="fill:#ff3232" />
  <path
     class="a"
     d="m 199.436,210.57872 -0.474,-0.052 c 0.138,0.014 0.299,0.029 0.474,0.052 z"
     id="path14"
     inkscape:connector-curvature="0"
     style="fill:#ff3232" />
  <path
     class="a"
     d="m 243.528,202.34872 c -0.037,-1.01 -0.209,-2.861 -2.178,-3.409 -33.326,-9.257 -43.51,-10.936 -53.507,-19.771 1.056,-5.412 3.518,-10.342 5.512,-15.409 a 7.908,7.908 0 0 0 -0.9,-8.2 c -0.826,3.587 -8.491,14.436 -10.275,17.317 -0.838,1.352 -1.513,1.027 -2.437,0.141 l -7.188,-6.695 c -1.053,-0.932 -0.972,-1.687 -0.092,-2.611 3.757,-3.937 5.714,-10.25 6.7,-14 l 4.35,-17.607 c 0.545,-2 0.218,-3.243 -1.811,-4.316 l -7.125,19.917 c -1.357,4.313 -6.769,10.944 -6.769,10.944 -1.122,1.4 -1.753,1.151 -3.01,0.049 l -8.218,-8.2 a 6.824,6.824 0 0 1 -2.144,-5.211 L 155.2,96.395707 c 0.055,-2.726 -0.863,-4.319 -3.563,-5.3 l -1.98,19.791003 c -0.092,0.886 -0.069,2.072 -0.85,2.5 -0.984,0.542 -1.865,-0.686 -2.608,-1.317 l -4.657,-4.281 c -0.9,-0.893 -1.55,-0.678 -2.342,0.134 a 1.288,1.288 0 0 0 -0.04,2.089 l 3.068,3.389 c 4.241,4.17801 6.708,7.63901 6.734,14.47701 0.006,1.489 -0.229,3.483 -0.958,3.854 -0.729,0.371 -2.083,-0.778 -2.984,-1.429 l -12.44,-9.2 c -1.17,-0.9 -2.235,-0.89 -3.113,-0.029 -0.993,0.967 0.835,2.534 0.835,2.534 l 16.023,15.24 c 1.165,1.11 2.106,2.186 1.785,3.908 -0.511,7.719 4.284,14.772 7.639,18.477 0,0 18.488,19.237 26.953,27.926 0,0 -11.55,29.039 -19.593,41.449 -10.9,16.819 -45.6,33.338 -45.6,33.338 l 62.242,43.657 c 13.194,0 24.623,-18.064 27.983,-30.337 a 47.847,47.847 0 0 0 2.319,-13.739 c 0.539,-15.386 -3.128,-30.325 -4.9,-45.467 q 17.919,-1.485 35.834,-2.967 c 0,0 2.659,-9.496 2.541,-12.744 z m -45.418,8.089 v 0 h 0.017 z"
     id="path16"
     inkscape:connector-curvature="0"
     style="fill:#ff3232" />
  <path
     class="b"
     d="M 166.974,15.649707 16.548,102.49871 A 23.094,23.094 0 0 0 5,122.49972 v 173.7 a 23.1,23.1 0 0 0 11.548,20 l 150.426,86.848 a 23.1,23.1 0 0 0 23.1,0 l 150.426,-86.849 a 23.1,23.1 0 0 0 11.548,-20 v -173.7 A 23.094,23.094 0 0 0 340.5,102.49871 L 190.07,15.649707 a 23.1,23.1 0 0 0 -23.096,0 z"
     id="path18"
     inkscape:connector-curvature="0"
     style="fill:none;stroke:#ff3232;stroke-width:10px;stroke-miterlimit:10" />
</svg>
