<svg xmlns="http://www.w3.org/2000/svg" xmlns:xlink="http://www.w3.org/1999/xlink" viewBox="0 0 2055.06 468.35"><defs><style>.cls-1,.cls-13{fill:none;}.cls-2{font-size:387.78px;font-family:TitilliumWeb-Light, Titillium Web;letter-spacing:-0.02em;}.cls-12,.cls-2{fill:#ff3232;}.cls-3{letter-spacing:-0.02em;}.cls-4{letter-spacing:-0.02em;}.cls-5{letter-spacing:-0.02em;}.cls-6{letter-spacing:-0.02em;}.cls-7{letter-spacing:-0.02em;}.cls-8{letter-spacing:-0.02em;}.cls-9{letter-spacing:-0.02em;}.cls-10{letter-spacing:-0.02em;}.cls-11{clip-path:url(#clip-path);}.cls-13{stroke:#ff3232;stroke-miterlimit:10;stroke-width:12px;}.cls-14{fill:#fff;}</style><clipPath id="clip-path" transform="translate(-37.5 -5.83)"><rect class="cls-1" width="480" height="480"/></clipPath></defs><title>logo</title><g id="Layer_2" data-name="Layer 2"><g id="Layer_1-2" data-name="Layer 1"><text class="cls-2" transform="translate(512.5 326.47) scale(0.7)">H<tspan class="cls-3" x="253.67" y="0">A</tspan><tspan class="cls-4" x="475.92" y="0">C</tspan><tspan class="cls-5" x="679.59" y="0">K</tspan><tspan class="cls-6" x="890.41" y="0">S</tspan><tspan class="cls-7" x="1092.65" y="0">U</tspan><tspan class="cls-8" x="1333.47" y="0">RR</tspan><tspan class="cls-9" x="1795.1" y="0">E</tspan><tspan class="cls-10" x="2001.63" y="0">Y</tspan></text><g class="cls-11"><polygon class="cls-12" points="202.5 6.93 6 120.55 6 347.8 202.5 461.42 399 347.8 399 120.55 202.5 6.93"/><g class="cls-11"><polygon class="cls-13" points="202.5 6.93 6 120.55 6 347.8 202.5 461.42 399 347.8 399 120.55 202.5 6.93"/><path class="cls-14" d="M312.67,245.89,272,249.26c2,17.2,6.16,34.16,5.55,51.64a54.62,54.62,0,0,1-2.62,15.61c-3.82,13.93-16.8,34.45-31.79,34.45l-70.69-49.58s39.41-18.77,51.79-37.87c9.13-14.1,22.25-47.08,22.25-47.08-9.61-9.87-30.61-31.71-30.61-31.71-3.82-4.21-9.26-12.22-8.68-21,.36-1.95-.7-3.18-2-4.44L187,142s-2.08-1.78-.94-2.87,2.2-1,3.53,0l14.13,10.44c1,.74,2.56,2,3.39,1.62s1.1-2.68,1.09-4.37c0-7.77-2.83-11.7-7.65-16.45L197,126.53a1.45,1.45,0,0,1,0-2.37c.9-.92,1.64-1.16,2.66-.15l5.29,4.86c.84.72,1.84,2.12,3,1.5.88-.49.85-1.84,1-2.84L211.18,105c3.08,1.13,4.11,2.93,4,6l-.86,55.52a7.69,7.69,0,0,0,2.43,5.92l9.34,9.32c1.42,1.24,2.14,1.53,3.42-.06,0,0,6.14-7.53,7.68-12.43l8.09-22.62c2.31,1.21,2.68,2.63,2.06,4.89l-4.94,20c-1.13,4.27-3.34,11.44-7.61,15.92-1,1-1.09,1.89.1,3l8.17,7.6c1,1,1.81,1.37,2.76-.16,2-3.27,10.73-15.59,11.67-19.67a9,9,0,0,1,1,9.31c-2.26,5.76-5.05,11.36-6.25,17.5,11.35,10,22.92,11.94,60.77,22.46,2.24.62,2.43,2.72,2.48,3.87.13,3.69-2.89,14.48-2.89,14.48" transform="translate(-37.5 -5.83)"/></g></g></g></g></svg>