<svg xmlns="http://www.w3.org/2000/svg" xmlns:xlink="http://www.w3.org/1999/xlink" viewBox="0 0 2055.06 468.35"><defs><style>.cls-1,.cls-4{fill:none;}.cls-2{fill:#ff3232;}.cls-3{clip-path:url(#clip-path);}.cls-4{stroke:#ff3232;stroke-miterlimit:10;stroke-width:12px;}.cls-5{fill:#fff;}</style><clipPath id="clip-path" transform="translate(-37.5 -5.83)"><rect class="cls-1" width="480" height="480"/></clipPath></defs><title>logo</title><g id="Layer_2" data-name="Layer 2"><g id="logo"><path class="cls-2" d="M692.78,332.29V245.16H590.45v87.13H573.62V143.64h16.83v86.59H692.78V143.64h16.56V332.29Z" transform="translate(-37.5 -5.83)"/><path class="cls-2" d="M734.36,332.29l54.29-188.65H828l54,188.65H865.47l-15.21-52.11H766.12l-14.93,52.11Zm66.5-174-30.67,107h76L815.52,158.3Z" transform="translate(-37.5 -5.83)"/><path class="cls-2" d="M1019.41,329.31q-28,5.7-47.78,5.7t-31.89-4.21A50.86,50.86,0,0,1,920.06,319q-7.6-7.59-11.94-19.81Q900,276.92,900,238.65q0-61.35,19.55-81.17,16-16.54,48.86-16.56,22.53,0,51,5.71l-.82,14.65q-28.23-5.15-45.33-5.15t-26.46,3.66a41.52,41.52,0,0,0-15.2,9.77q-5.85,6.1-8.83,17-5.43,18.47-5.43,46.14t1.91,41.4a81.74,81.74,0,0,0,7.32,24.84,32.82,32.82,0,0,0,16,16q10.59,4.89,29.32,4.89t46.68-5.16Z" transform="translate(-37.5 -5.83)"/><path class="cls-2" d="M1066.16,332.29h-16.83V143.64h16.83v89l32.57-.81,52.39-88.22h19.27l-57,94.73,60.53,93.92h-20.09L1099,247.06l-32.84.54Z" transform="translate(-37.5 -5.83)"/><path class="cls-2" d="M1247.93,155.58q-43.71,0-43.7,33.39,0,19.54,9.91,26.33T1253,227.79q28.92,5.7,41.26,15.74t12.35,33.66q0,30.4-15.06,43.84t-44.11,13.44a370.71,370.71,0,0,1-49.13-3.8l-9.77-1.36,1.9-14.39q37.18,4.62,57.54,4.62t31-9.91q10.57-9.9,10.58-29.05t-9.36-26q-9.37-6.93-29.86-10.73t-30-6.92a66.78,66.78,0,0,1-17.78-9,32.16,32.16,0,0,1-11.8-14.93q-3.54-9.09-3.53-22.93,0-49.41,59.72-49.41,17.91,0,46.69,3.8l9,1.36-1.36,14.39Q1263.68,155.58,1247.93,155.58Z" transform="translate(-37.5 -5.83)"/><path class="cls-2" d="M1353.94,276.92q0,42.88,47,42.89,24.43,0,36.65-10.05t12.21-32.84V143.64h16.83V276.92q0,30.68-16.55,44.38T1401.58,335q-31.89,0-48-13.71t-16.15-44.38V143.64h16.55Z" transform="translate(-37.5 -5.83)"/><path class="cls-2" d="M1523.87,257.92v74.37H1507V143.64h69.22q29.58,0,44.11,13.44t14.52,42.48q0,45.33-36.37,55.1l38.82,77.63h-18.73l-37.19-74.37Zm93.65-58.09q0-21.18-10-31.22t-31.22-10h-52.39V243h52.39Q1617.53,243,1617.52,199.83Z" transform="translate(-37.5 -5.83)"/><path class="cls-2" d="M1685.44,257.92v74.37h-16.83V143.64h69.22q29.58,0,44.11,13.44t14.52,42.48q0,45.33-36.37,55.1l38.82,77.63h-18.73L1743,257.92Zm93.65-58.09q0-21.18-10-31.22t-31.22-10h-52.39V243h52.39Q1779.09,243,1779.09,199.83Z" transform="translate(-37.5 -5.83)"/><path class="cls-2" d="M1830.18,332.29V143.64h113.2v15.2H1847v70h80.08V243.8H1847v73.56h96.37v14.93Z" transform="translate(-37.5 -5.83)"/><path class="cls-2" d="M2032,332.29H2015.2v-79.8l-60.53-108.85h18.73l50.22,91.48,49.94-91.48h19L2032,252.49Z" transform="translate(-37.5 -5.83)"/><g class="cls-3"><polygon class="cls-2" points="202.5 6.93 6 120.55 6 347.8 202.5 461.42 399 347.8 399 120.55 202.5 6.93"/><g class="cls-3"><polygon class="cls-4" points="202.5 6.93 6 120.55 6 347.8 202.5 461.42 399 347.8 399 120.55 202.5 6.93"/><path class="cls-5" d="M312.67,245.89,272,249.26c2,17.2,6.16,34.16,5.55,51.64a54.62,54.62,0,0,1-2.62,15.61c-3.82,13.93-16.8,34.45-31.79,34.45l-70.69-49.58s39.41-18.77,51.79-37.87c9.13-14.1,22.25-47.08,22.25-47.08-9.61-9.87-30.61-31.71-30.61-31.71-3.82-4.21-9.26-12.22-8.68-21,.36-1.95-.7-3.18-2-4.44L187,142s-2.08-1.78-.94-2.87,2.2-1,3.53,0l14.13,10.44c1,.74,2.56,2,3.39,1.62s1.1-2.68,1.09-4.37c0-7.77-2.83-11.7-7.65-16.45L197,126.53a1.45,1.45,0,0,1,0-2.37c.9-.92,1.64-1.16,2.66-.15l5.29,4.86c.84.72,1.84,2.12,3,1.5.88-.49.85-1.84,1-2.84L211.18,105c3.08,1.13,4.11,2.93,4,6l-.86,55.52a7.69,7.69,0,0,0,2.43,5.92l9.34,9.32c1.42,1.24,2.14,1.53,3.42-.06,0,0,6.14-7.53,7.68-12.43l8.09-22.62c2.31,1.21,2.68,2.63,2.06,4.89l-4.94,20c-1.13,4.27-3.34,11.44-7.61,15.92-1,1-1.09,1.89.1,3l8.17,7.6c1,1,1.81,1.37,2.76-.16,2-3.27,10.73-15.59,11.67-19.67a9,9,0,0,1,1,9.31c-2.26,5.76-5.05,11.36-6.25,17.5,11.35,10,22.92,11.94,60.77,22.46,2.24.62,2.43,2.72,2.48,3.87.13,3.69-2.89,14.48-2.89,14.48" transform="translate(-37.5 -5.83)"/></g></g></g></g></svg>